<svg width="317" height="338" viewBox="0 0 317 338" fill="none" xmlns="http://www.w3.org/2000/svg">
<g filter="url(#filter0_ddd_906_133)">
<rect x="50" y="105" width="158" height="120" rx="10" fill="white"/>
</g>
<path d="M153.226 135.613H105.82C105.372 135.613 104.923 135.987 104.923 136.511V192.665C104.923 193.113 105.297 193.562 105.82 193.562L135.954 193.562C136.252 193.562 136.477 193.188 136.328 192.89C133.262 187.954 133.486 181.449 137.449 176.664C138.271 175.617 139.244 174.795 140.29 174.047C140.664 173.822 140.44 173.299 140.066 173.299L109.11 173.299C109.036 173.299 108.961 173.225 108.961 173.149V139.427C108.961 139.352 109.035 139.277 109.11 139.277H149.861C149.936 139.277 150.011 139.352 150.011 139.427V171.355C150.011 171.579 150.161 171.729 150.385 171.729C151.432 171.879 152.479 172.177 153.525 172.626C153.824 172.776 154.124 172.551 154.124 172.252V136.511C154.124 135.988 153.75 135.614 153.227 135.614L153.226 135.613Z" fill="#C8C8C8"/>
<path d="M153.226 135.613H105.82C105.372 135.613 104.923 135.987 104.923 136.511V192.665C104.923 193.113 105.297 193.562 105.82 193.562L135.954 193.562C136.252 193.562 136.477 193.188 136.328 192.89C133.262 187.954 133.486 181.449 137.449 176.664C138.271 175.617 139.244 174.795 140.29 174.047C140.664 173.822 140.44 173.299 140.066 173.299L109.11 173.299C109.036 173.299 108.961 173.225 108.961 173.149V139.427C108.961 139.352 109.035 139.277 109.11 139.277H149.861C149.936 139.277 150.011 139.352 150.011 139.427V171.355C150.011 171.579 150.161 171.729 150.385 171.729C151.432 171.879 152.479 172.177 153.525 172.626C153.824 172.776 154.124 172.551 154.124 172.252V136.511C154.124 135.988 153.75 135.614 153.227 135.614L153.226 135.613Z" fill="#C8C8C8"/>
<path d="M124.316 153.833L129.907 148.241L136.502 154.836L130.911 160.428L124.316 153.833Z" fill="#C8C8C8"/>
<path d="M133.138 162.967C132.656 163.449 131.875 163.449 131.393 162.967C130.911 162.485 130.911 161.704 131.393 161.222L137.298 155.317C137.78 154.835 138.561 154.835 139.043 155.317C139.524 155.799 139.524 156.58 139.043 157.062L133.138 162.967Z" fill="#C8C8C8"/>
<path d="M123.52 153.349C123.038 153.831 122.257 153.831 121.775 153.349C121.293 152.867 121.293 152.086 121.775 151.604L127.68 145.699C128.162 145.218 128.943 145.218 129.425 145.699C129.907 146.181 129.907 146.962 129.425 147.444L123.52 153.349Z" fill="#C8C8C8"/>
<path d="M126.965 156.481L128.262 157.778L118.867 167.172C118.509 167.53 117.926 167.528 117.567 167.169C117.388 166.99 117.3 166.757 117.3 166.522C117.3 166.287 117.391 166.054 117.57 165.875L126.965 156.481Z" fill="#C8C8C8"/>
<path d="M124.953 167.429C124.953 166.095 126.044 164.996 127.389 164.996H139.134C140.479 164.996 141.57 166.095 141.57 167.429H124.953Z" fill="#C8C8C8"/>
<path d="M155.245 176.963C150.534 173.074 143.505 173.748 139.617 178.458C135.729 183.169 136.402 190.198 141.113 194.085C145.824 197.974 152.852 197.3 156.74 192.59C160.629 187.88 159.956 180.851 155.245 176.963ZM153.151 179.505C155.918 181.748 156.74 185.561 155.319 188.702C155.245 188.851 155.021 188.926 154.871 188.776L143.73 179.58C143.58 179.43 143.58 179.206 143.73 179.131C146.571 177.187 150.385 177.262 153.151 179.505L153.151 179.505ZM143.207 191.618C140.44 189.375 139.618 185.562 141.038 182.421C141.113 182.272 141.337 182.197 141.487 182.347L152.703 191.544C152.853 191.693 152.853 191.918 152.703 191.992C149.861 193.936 145.974 193.862 143.207 191.618H143.207Z" fill="#C8C8C8"/>
<defs>
<filter id="filter0_ddd_906_133" x="-58.5737" y="0.769226" width="375.147" height="337.147" filterUnits="userSpaceOnUse" color-interpolation-filters="sRGB">
<feFlood flood-opacity="0" result="BackgroundImageFix"/>
<feColorMatrix in="SourceAlpha" type="matrix" values="0 0 0 0 0 0 0 0 0 0 0 0 0 0 0 0 0 0 127 0" result="hardAlpha"/>
<feOffset dy="4.34295"/>
<feGaussianBlur stdDeviation="54.2869"/>
<feComposite in2="hardAlpha" operator="out"/>
<feColorMatrix type="matrix" values="0 0 0 0 0.595833 0 0 0 0 0.595833 0 0 0 0 0.595833 0 0 0 0.25 0"/>
<feBlend mode="normal" in2="BackgroundImageFix" result="effect1_dropShadow_906_133"/>
<feColorMatrix in="SourceAlpha" type="matrix" values="0 0 0 0 0 0 0 0 0 0 0 0 0 0 0 0 0 0 127 0" result="hardAlpha"/>
<feOffset dy="3.93525"/>
<feGaussianBlur stdDeviation="5"/>
<feComposite in2="hardAlpha" operator="out"/>
<feColorMatrix type="matrix" values="0 0 0 0 0.908333 0 0 0 0 0.908333 0 0 0 0 0.908333 0 0 0 0.25 0"/>
<feBlend mode="normal" in2="effect1_dropShadow_906_133" result="effect2_dropShadow_906_133"/>
<feColorMatrix in="SourceAlpha" type="matrix" values="0 0 0 0 0 0 0 0 0 0 0 0 0 0 0 0 0 0 127 0" result="hardAlpha"/>
<feOffset dy="4"/>
<feGaussianBlur stdDeviation="1"/>
<feComposite in2="hardAlpha" operator="out"/>
<feColorMatrix type="matrix" values="0 0 0 0 0.9125 0 0 0 0 0.9125 0 0 0 0 0.9125 0 0 0 0.25 0"/>
<feBlend mode="normal" in2="effect2_dropShadow_906_133" result="effect3_dropShadow_906_133"/>
<feBlend mode="normal" in="SourceGraphic" in2="effect3_dropShadow_906_133" result="shape"/>
</filter>
</defs>
</svg>
