<svg width="20" height="20" viewBox="0 0 20 20" fill="none" xmlns="http://www.w3.org/2000/svg">
<path d="M15 13.4333C14.3667 13.4333 13.8 13.6833 13.3667 14.075L7.425 10.6166C7.46667 10.425 7.5 10.2333 7.5 10.0333C7.5 9.83328 7.46667 9.64162 7.425 9.44995L13.3 6.02495C13.75 6.44162 14.3417 6.69995 15 6.69995C16.3833 6.69995 17.5 5.58328 17.5 4.19995C17.5 2.81662 16.3833 1.69995 15 1.69995C13.6167 1.69995 12.5 2.81662 12.5 4.19995C12.5 4.39995 12.5333 4.59162 12.575 4.78328L6.7 8.20828C6.25 7.79162 5.65833 7.53328 5 7.53328C3.61667 7.53328 2.5 8.64995 2.5 10.0333C2.5 11.4166 3.61667 12.5333 5 12.5333C5.65833 12.5333 6.25 12.2749 6.7 11.8583L12.6333 15.325C12.5917 15.5 12.5667 15.6833 12.5667 15.8666C12.5667 17.2083 13.6583 18.2999 15 18.2999C16.3417 18.2999 17.4333 17.2083 17.4333 15.8666C17.4333 14.5249 16.3417 13.4333 15 13.4333ZM15 3.36662C15.4583 3.36662 15.8333 3.74162 15.8333 4.19995C15.8333 4.65828 15.4583 5.03328 15 5.03328C14.5417 5.03328 14.1667 4.65828 14.1667 4.19995C14.1667 3.74162 14.5417 3.36662 15 3.36662ZM5 10.8666C4.54167 10.8666 4.16667 10.4916 4.16667 10.0333C4.16667 9.57495 4.54167 9.19995 5 9.19995C5.45833 9.19995 5.83333 9.57495 5.83333 10.0333C5.83333 10.4916 5.45833 10.8666 5 10.8666ZM15 16.7166C14.5417 16.7166 14.1667 16.3416 14.1667 15.8833C14.1667 15.425 14.5417 15.05 15 15.05C15.4583 15.05 15.8333 15.425 15.8333 15.8833C15.8333 16.3416 15.4583 16.7166 15 16.7166Z" fill="#575757"/>
</svg>
